<svg width="512" height="512" viewBox="0 0 512 512" fill="none" xmlns="http://www.w3.org/2000/svg">
<path d="M483.063 374.503H446.46L421.971 300.002H349.301V300.027L353.036 311.419L355.837 319.947L373.777 374.503H332.929L318.823 329.521L316.794 323.047L290.798 240.155L259.823 338.024L258.553 342.045L248.282 374.503H197.561L164.419 268.815L161.842 260.623L155.057 239.01L146.802 264.843L143.117 276.397L117.57 356.388L116.163 360.82L111.793 374.503H63.3377L63.3253 374.49L67.0106 363.397L71.0319 351.308L85.063 309.115L87.6775 301.272L87.6899 301.259L93.7406 283.008L94.0643 282.086L96.243 275.501L118.504 208.532C118.504 208.532 118.504 208.52 118.491 208.52L111.805 201.012C111.805 201.012 111.805 201 111.818 201H174.068L191.224 253.091L193.378 259.614L215.476 326.72L242.318 246.455L243.837 241.873L254.98 208.545L248.307 201.037V201.012H316.707L340.523 273.409L413.206 273.421L397.557 225.825L396.075 221.318L391.705 208.034L385.455 201.025C385.455 201.025 385.455 201.012 385.468 201.012H430.549L433.773 211.707L435.952 218.891L439.475 230.519L441.355 236.731L449.435 263.461L455.785 284.464L483.038 374.503H483.063Z" fill="white"/>
<path d="M344.893 228.178C364.39 226.361 382.131 225.576 397.557 225.813L396.075 221.306C380.052 222.825 362.859 225.041 344.868 227.942C344.719 227.967 344.744 228.191 344.893 228.178Z" fill="white" fill-opacity="0.8"/>
<path d="M242.331 246.442L243.849 241.861C230.478 244.351 216.746 247.189 202.802 250.364C198.918 251.26 195.046 252.157 191.224 253.078L193.377 259.602C208.878 254.996 225.274 250.563 242.318 246.442H242.331Z" fill="white" fill-opacity="0.8"/>
<path d="M146.815 264.843L143.129 276.397C149.939 273.845 157.036 271.317 164.419 268.815L161.842 260.623C156.75 262.005 151.745 263.412 146.815 264.843Z" fill="white" fill-opacity="0.8"/>
<path d="M117.595 356.388C130.48 356.475 144.897 355.865 160.522 354.558C160.945 354.52 161.007 355.155 160.597 355.218C145.072 357.608 130.182 359.463 116.188 360.808C98.1852 362.526 81.6515 363.385 67.0353 363.385C29.0256 363.372 4.53655 360.446 0.266215 345.581C-3.43142 332.733 31.6277 305.48 90.6156 283.344L83.7805 303.488C61.4702 316.536 49.8419 328.848 52.8672 338.572C54.5978 344.112 60.9349 348.358 71.0567 351.296C82.299 354.57 98.2099 356.276 117.607 356.375L117.595 356.388Z" fill="white" fill-opacity="0.8"/>
<path d="M455.81 284.464C444.555 289.669 431.881 294.885 417.999 300.002C399.262 306.924 378.346 313.647 355.837 319.947C343.91 323.283 331.559 326.483 318.823 329.521C315.561 330.305 312.287 331.065 309 331.824C291.757 335.771 274.875 339.182 258.553 342.045C236.99 345.843 215.576 349.117 197.336 350.922C197.025 350.947 196.975 350.424 197.287 350.387C216.161 347.573 236.118 343.465 256.399 338.821C257.557 338.56 258.69 338.286 259.823 338.037C279.755 333.405 298.853 328.363 316.794 323.047C329.493 319.287 341.606 315.403 353.023 311.431C363.817 307.684 374.001 303.861 383.451 300.014C414.053 287.577 437.16 274.878 449.448 263.474C457.304 256.191 460.752 249.443 458.922 243.616C457.266 238.263 451.303 234.117 441.804 231.179L438.069 218.853C479.826 218.144 507.614 224.008 511.523 236.594C515.545 249.468 493.882 266.885 455.797 284.477L455.81 284.464Z" fill="white" fill-opacity="0.8"/>
</svg>
