<svg xmlns="http://www.w3.org/2000/svg" viewBox="0 0 258 258"><defs><linearGradient id="m" x1="0" x2="1" y1="0" y2="1"><stop stop-color="#040506"/><stop offset=".45" stop-color="#ecefea"/><stop offset=".62" stop-color="#607b70"/><stop offset="1" stop-color="#020403"/></linearGradient><filter id="b"><feGaussianBlur stdDeviation="7"/></filter></defs><rect width="258" height="258" rx="24" fill="#030504"/><path d="M32 133c44-15 55-48 70-88 8 50 18 53 39 76 21-28 31-43 48-88 18 51 28 64 55 94-36 15-54 43-71 86-20-49-32-65-52-89-24 31-36 48-54 91-18-42-31-62-35-82Z" fill="#baff56" opacity=".45" filter="url(#b)"/><path d="M32 133c44-15 55-48 70-88 8 50 18 53 39 76 21-28 31-43 48-88 18 51 28 64 55 94-36 15-54 43-71 86-20-49-32-65-52-89-24 31-36 48-54 91-18-42-31-62-35-82Z" fill="url(#m)" stroke="#f4fff1" stroke-width="3"/></svg>
