<svg xmlns="http://www.w3.org/2000/svg" viewBox="0 0 258 258"><defs><radialGradient id="g"><stop stop-color="#ebff8d"/><stop offset=".36" stop-color="#42e655"/><stop offset="1" stop-color="#001c08"/></radialGradient><filter id="b"><feGaussianBlur stdDeviation="13"/></filter></defs><rect width="258" height="258" rx="24" fill="#020603"/><path d="M25 130c46-19 57-49 74-90 9 52 18 58 43 82 24-32 32-48 50-91 20 51 31 72 47 95-34 16-51 39-70 90-20-49-36-66-53-89-24 30-35 47-55 91-16-48-23-63-36-88Z" fill="#2cff5e" opacity=".65" filter="url(#b)"/><path d="M25 130c46-19 57-49 74-90 9 52 18 58 43 82 24-32 32-48 50-91 20 51 31 72 47 95-34 16-51 39-70 90-20-49-36-66-53-89-24 30-35 47-55 91-16-48-23-63-36-88Z" fill="url(#g)" stroke="#c8ff5f" stroke-width="3"/></svg>
